<mxfile host="Electron" agent="Mozilla/5.0 (Windows NT 10.0; Win64; x64) AppleWebKit/537.36 (KHTML, like Gecko) draw.io/26.0.9 Chrome/128.0.6613.186 Electron/32.2.5 Safari/537.36" version="26.0.9">
  <diagram name="Страница — 1" id="PtERw0xOoVtdUdhSGjrE">
    <mxGraphModel dx="266" dy="164" grid="1" gridSize="10" guides="1" tooltips="1" connect="1" arrows="1" fold="1" page="1" pageScale="1" pageWidth="827" pageHeight="1169" math="0" shadow="0">
      <root>
        <mxCell id="0" />
        <mxCell id="1" parent="0" />
        <mxCell id="6yTuowreAeibE9gmzPdd-3" style="edgeStyle=orthogonalEdgeStyle;rounded=0;orthogonalLoop=1;jettySize=auto;html=1;" parent="1" source="6yTuowreAeibE9gmzPdd-1" target="6yTuowreAeibE9gmzPdd-2" edge="1">
          <mxGeometry relative="1" as="geometry" />
        </mxCell>
        <mxCell id="6yTuowreAeibE9gmzPdd-1" value="Начало" style="rounded=1;whiteSpace=wrap;html=1;arcSize=50;" parent="1" vertex="1">
          <mxGeometry x="20" y="20" width="200" height="30" as="geometry" />
        </mxCell>
        <mxCell id="6yTuowreAeibE9gmzPdd-7" style="edgeStyle=orthogonalEdgeStyle;rounded=0;orthogonalLoop=1;jettySize=auto;html=1;" parent="1" source="6yTuowreAeibE9gmzPdd-2" target="6yTuowreAeibE9gmzPdd-6" edge="1">
          <mxGeometry relative="1" as="geometry" />
        </mxCell>
        <mxCell id="6yTuowreAeibE9gmzPdd-2" value="Ввод n" style="shape=parallelogram;perimeter=parallelogramPerimeter;whiteSpace=wrap;html=1;fixedSize=1;" parent="1" vertex="1">
          <mxGeometry x="20" y="70" width="200" height="30" as="geometry" />
        </mxCell>
        <mxCell id="6yTuowreAeibE9gmzPdd-4" value="n - количество элементов" style="strokeWidth=1;html=1;shape=mxgraph.flowchart.annotation_1;align=left;pointerEvents=1;" parent="1" vertex="1">
          <mxGeometry x="250" y="70" width="5" height="30" as="geometry" />
        </mxCell>
        <mxCell id="6yTuowreAeibE9gmzPdd-5" value="" style="endArrow=none;html=1;rounded=0;entryX=0;entryY=0.5;entryDx=0;entryDy=0;entryPerimeter=0;dashed=1;" parent="1" source="6yTuowreAeibE9gmzPdd-2" target="6yTuowreAeibE9gmzPdd-4" edge="1">
          <mxGeometry width="50" height="50" relative="1" as="geometry">
            <mxPoint x="220" y="85" as="sourcePoint" />
            <mxPoint x="300" y="75" as="targetPoint" />
          </mxGeometry>
        </mxCell>
        <mxCell id="6yTuowreAeibE9gmzPdd-9" style="edgeStyle=orthogonalEdgeStyle;rounded=0;orthogonalLoop=1;jettySize=auto;html=1;" parent="1" source="6yTuowreAeibE9gmzPdd-6" target="6yTuowreAeibE9gmzPdd-8" edge="1">
          <mxGeometry relative="1" as="geometry" />
        </mxCell>
        <mxCell id="6yTuowreAeibE9gmzPdd-6" value="i = 1" style="rounded=0;whiteSpace=wrap;html=1;" parent="1" vertex="1">
          <mxGeometry x="20" y="120" width="200" height="30" as="geometry" />
        </mxCell>
        <mxCell id="6yTuowreAeibE9gmzPdd-11" style="edgeStyle=orthogonalEdgeStyle;rounded=0;orthogonalLoop=1;jettySize=auto;html=1;" parent="1" source="6yTuowreAeibE9gmzPdd-8" target="6yTuowreAeibE9gmzPdd-10" edge="1">
          <mxGeometry relative="1" as="geometry" />
        </mxCell>
        <mxCell id="6yTuowreAeibE9gmzPdd-8" value="Ввод массива&lt;div&gt;i &amp;gt; n&lt;/div&gt;" style="shape=loopLimit;whiteSpace=wrap;html=1;" parent="1" vertex="1">
          <mxGeometry x="20" y="170" width="200" height="40" as="geometry" />
        </mxCell>
        <mxCell id="6yTuowreAeibE9gmzPdd-15" style="edgeStyle=orthogonalEdgeStyle;rounded=0;orthogonalLoop=1;jettySize=auto;html=1;" parent="1" source="6yTuowreAeibE9gmzPdd-10" target="6yTuowreAeibE9gmzPdd-14" edge="1">
          <mxGeometry relative="1" as="geometry" />
        </mxCell>
        <mxCell id="6yTuowreAeibE9gmzPdd-10" value="Ввод array[i]" style="shape=parallelogram;perimeter=parallelogramPerimeter;whiteSpace=wrap;html=1;fixedSize=1;" parent="1" vertex="1">
          <mxGeometry x="20" y="230" width="200" height="30" as="geometry" />
        </mxCell>
        <mxCell id="6yTuowreAeibE9gmzPdd-12" value="array - массив чисел" style="strokeWidth=1;html=1;shape=mxgraph.flowchart.annotation_1;align=left;pointerEvents=1;" parent="1" vertex="1">
          <mxGeometry x="245" y="230" width="5" height="30" as="geometry" />
        </mxCell>
        <mxCell id="6yTuowreAeibE9gmzPdd-13" value="" style="endArrow=none;html=1;rounded=0;entryX=0;entryY=0.5;entryDx=0;entryDy=0;entryPerimeter=0;dashed=1;" parent="1" source="6yTuowreAeibE9gmzPdd-10" target="6yTuowreAeibE9gmzPdd-12" edge="1">
          <mxGeometry width="50" height="50" relative="1" as="geometry">
            <mxPoint x="215" y="245" as="sourcePoint" />
            <mxPoint x="295" y="235" as="targetPoint" />
          </mxGeometry>
        </mxCell>
        <mxCell id="6yTuowreAeibE9gmzPdd-18" style="edgeStyle=orthogonalEdgeStyle;rounded=0;orthogonalLoop=1;jettySize=auto;html=1;" parent="1" source="6yTuowreAeibE9gmzPdd-14" target="6yTuowreAeibE9gmzPdd-16" edge="1">
          <mxGeometry relative="1" as="geometry" />
        </mxCell>
        <mxCell id="6yTuowreAeibE9gmzPdd-14" value="i = i + 1" style="rounded=0;whiteSpace=wrap;html=1;" parent="1" vertex="1">
          <mxGeometry x="20" y="280" width="200" height="30" as="geometry" />
        </mxCell>
        <mxCell id="6yTuowreAeibE9gmzPdd-20" style="edgeStyle=orthogonalEdgeStyle;rounded=0;orthogonalLoop=1;jettySize=auto;html=1;" parent="1" source="6yTuowreAeibE9gmzPdd-16" edge="1">
          <mxGeometry relative="1" as="geometry">
            <mxPoint x="120" y="390" as="targetPoint" />
          </mxGeometry>
        </mxCell>
        <mxCell id="6yTuowreAeibE9gmzPdd-16" value="Ввод массива" style="shape=loopLimit;whiteSpace=wrap;html=1;direction=west;" parent="1" vertex="1">
          <mxGeometry x="20" y="330" width="200" height="40" as="geometry" />
        </mxCell>
        <mxCell id="6yTuowreAeibE9gmzPdd-25" style="edgeStyle=orthogonalEdgeStyle;rounded=0;orthogonalLoop=1;jettySize=auto;html=1;" parent="1" source="6yTuowreAeibE9gmzPdd-21" target="6yTuowreAeibE9gmzPdd-24" edge="1">
          <mxGeometry relative="1" as="geometry" />
        </mxCell>
        <mxCell id="6yTuowreAeibE9gmzPdd-21" value="sort = 1" style="rounded=0;whiteSpace=wrap;html=1;" parent="1" vertex="1">
          <mxGeometry x="20" y="390" width="200" height="30" as="geometry" />
        </mxCell>
        <mxCell id="6yTuowreAeibE9gmzPdd-22" value="i - счетчик цикла" style="strokeWidth=1;html=1;shape=mxgraph.flowchart.annotation_1;align=left;pointerEvents=1;" parent="1" vertex="1">
          <mxGeometry x="250" y="120" width="5" height="30" as="geometry" />
        </mxCell>
        <mxCell id="6yTuowreAeibE9gmzPdd-23" value="" style="endArrow=none;html=1;rounded=0;entryX=0;entryY=0.5;entryDx=0;entryDy=0;entryPerimeter=0;exitX=1;exitY=0.5;exitDx=0;exitDy=0;dashed=1;" parent="1" target="6yTuowreAeibE9gmzPdd-22" edge="1">
          <mxGeometry width="50" height="50" relative="1" as="geometry">
            <mxPoint x="220" y="135" as="sourcePoint" />
            <mxPoint x="300" y="125" as="targetPoint" />
          </mxGeometry>
        </mxCell>
        <mxCell id="6yTuowreAeibE9gmzPdd-27" style="edgeStyle=orthogonalEdgeStyle;rounded=0;orthogonalLoop=1;jettySize=auto;html=1;" parent="1" source="6yTuowreAeibE9gmzPdd-24" target="6yTuowreAeibE9gmzPdd-26" edge="1">
          <mxGeometry relative="1" as="geometry" />
        </mxCell>
        <mxCell id="6yTuowreAeibE9gmzPdd-29" style="edgeStyle=orthogonalEdgeStyle;rounded=0;orthogonalLoop=1;jettySize=auto;html=1;" parent="1" source="6yTuowreAeibE9gmzPdd-24" target="6yTuowreAeibE9gmzPdd-28" edge="1">
          <mxGeometry relative="1" as="geometry" />
        </mxCell>
        <mxCell id="6yTuowreAeibE9gmzPdd-24" value="sort = 1" style="rhombus;whiteSpace=wrap;html=1;" parent="1" vertex="1">
          <mxGeometry x="20" y="440" width="200" height="40" as="geometry" />
        </mxCell>
        <mxCell id="6yTuowreAeibE9gmzPdd-38" style="edgeStyle=orthogonalEdgeStyle;rounded=0;orthogonalLoop=1;jettySize=auto;html=1;" parent="1" source="6yTuowreAeibE9gmzPdd-26" target="6yTuowreAeibE9gmzPdd-35" edge="1">
          <mxGeometry relative="1" as="geometry" />
        </mxCell>
        <mxCell id="6yTuowreAeibE9gmzPdd-26" value="comp = вверх" style="rounded=0;whiteSpace=wrap;html=1;" parent="1" vertex="1">
          <mxGeometry x="20" y="500" width="200" height="30" as="geometry" />
        </mxCell>
        <mxCell id="6yTuowreAeibE9gmzPdd-28" value="comp = вниз" style="rounded=0;whiteSpace=wrap;html=1;" parent="1" vertex="1">
          <mxGeometry x="240" y="500" width="200" height="30" as="geometry" />
        </mxCell>
        <mxCell id="6yTuowreAeibE9gmzPdd-30" value="Да" style="text;html=1;align=center;verticalAlign=middle;resizable=0;points=[];autosize=1;strokeColor=none;fillColor=none;" parent="1" vertex="1">
          <mxGeometry x="80" y="470" width="40" height="30" as="geometry" />
        </mxCell>
        <mxCell id="6yTuowreAeibE9gmzPdd-31" value="Нет" style="text;html=1;align=center;verticalAlign=middle;resizable=0;points=[];autosize=1;strokeColor=none;fillColor=none;" parent="1" vertex="1">
          <mxGeometry x="210" y="430" width="40" height="30" as="geometry" />
        </mxCell>
        <mxCell id="6yTuowreAeibE9gmzPdd-32" value="comp - компаратор" style="strokeWidth=1;html=1;shape=mxgraph.flowchart.annotation_1;align=left;pointerEvents=1;" parent="1" vertex="1">
          <mxGeometry x="470" y="500" width="5" height="30" as="geometry" />
        </mxCell>
        <mxCell id="6yTuowreAeibE9gmzPdd-33" value="" style="endArrow=none;html=1;rounded=0;entryX=0;entryY=0.5;entryDx=0;entryDy=0;entryPerimeter=0;exitX=1;exitY=0.5;exitDx=0;exitDy=0;dashed=1;" parent="1" target="6yTuowreAeibE9gmzPdd-32" edge="1">
          <mxGeometry width="50" height="50" relative="1" as="geometry">
            <mxPoint x="440" y="515" as="sourcePoint" />
            <mxPoint x="520" y="505" as="targetPoint" />
          </mxGeometry>
        </mxCell>
        <mxCell id="6yTuowreAeibE9gmzPdd-34" value="" style="group" parent="1" vertex="1" connectable="0">
          <mxGeometry x="20" y="569" width="200" height="30" as="geometry" />
        </mxCell>
        <mxCell id="6yTuowreAeibE9gmzPdd-35" value="сортировка(n, array, comp)" style="rounded=0;whiteSpace=wrap;html=1;" parent="6yTuowreAeibE9gmzPdd-34" vertex="1">
          <mxGeometry width="200" height="30" as="geometry" />
        </mxCell>
        <mxCell id="6yTuowreAeibE9gmzPdd-36" value="" style="endArrow=none;html=1;rounded=0;" parent="6yTuowreAeibE9gmzPdd-34" edge="1">
          <mxGeometry width="50" height="50" relative="1" as="geometry">
            <mxPoint x="10" as="sourcePoint" />
            <mxPoint x="10" y="30" as="targetPoint" />
          </mxGeometry>
        </mxCell>
        <mxCell id="6yTuowreAeibE9gmzPdd-37" value="" style="endArrow=none;html=1;rounded=0;" parent="6yTuowreAeibE9gmzPdd-34" edge="1">
          <mxGeometry width="50" height="50" relative="1" as="geometry">
            <mxPoint x="190" as="sourcePoint" />
            <mxPoint x="190" y="30" as="targetPoint" />
          </mxGeometry>
        </mxCell>
        <mxCell id="6yTuowreAeibE9gmzPdd-39" value="" style="endArrow=none;html=1;rounded=0;" parent="1" edge="1">
          <mxGeometry width="50" height="50" relative="1" as="geometry">
            <mxPoint x="120" y="550" as="sourcePoint" />
            <mxPoint x="340" y="550" as="targetPoint" />
          </mxGeometry>
        </mxCell>
        <mxCell id="6yTuowreAeibE9gmzPdd-40" value="" style="endArrow=none;html=1;rounded=0;entryX=0.5;entryY=1;entryDx=0;entryDy=0;" parent="1" target="6yTuowreAeibE9gmzPdd-28" edge="1">
          <mxGeometry width="50" height="50" relative="1" as="geometry">
            <mxPoint x="340" y="550" as="sourcePoint" />
            <mxPoint x="290" y="530" as="targetPoint" />
          </mxGeometry>
        </mxCell>
        <mxCell id="XetIG6lo_GdONwsDEzCl-12" style="edgeStyle=orthogonalEdgeStyle;rounded=0;orthogonalLoop=1;jettySize=auto;html=1;" edge="1" parent="1" source="XetIG6lo_GdONwsDEzCl-1" target="XetIG6lo_GdONwsDEzCl-4">
          <mxGeometry relative="1" as="geometry" />
        </mxCell>
        <mxCell id="XetIG6lo_GdONwsDEzCl-1" value="i = 1" style="rounded=0;whiteSpace=wrap;html=1;" vertex="1" parent="1">
          <mxGeometry x="20" y="620" width="200" height="30" as="geometry" />
        </mxCell>
        <mxCell id="XetIG6lo_GdONwsDEzCl-2" style="edgeStyle=orthogonalEdgeStyle;rounded=0;orthogonalLoop=1;jettySize=auto;html=1;" edge="1" parent="1" source="6yTuowreAeibE9gmzPdd-35" target="XetIG6lo_GdONwsDEzCl-1">
          <mxGeometry relative="1" as="geometry" />
        </mxCell>
        <mxCell id="XetIG6lo_GdONwsDEzCl-3" style="edgeStyle=orthogonalEdgeStyle;rounded=0;orthogonalLoop=1;jettySize=auto;html=1;" edge="1" parent="1" source="XetIG6lo_GdONwsDEzCl-4" target="XetIG6lo_GdONwsDEzCl-6">
          <mxGeometry relative="1" as="geometry" />
        </mxCell>
        <mxCell id="XetIG6lo_GdONwsDEzCl-4" value="Ввод массива&lt;div&gt;i &amp;gt; n&lt;/div&gt;" style="shape=loopLimit;whiteSpace=wrap;html=1;" vertex="1" parent="1">
          <mxGeometry x="20" y="670" width="200" height="40" as="geometry" />
        </mxCell>
        <mxCell id="XetIG6lo_GdONwsDEzCl-5" style="edgeStyle=orthogonalEdgeStyle;rounded=0;orthogonalLoop=1;jettySize=auto;html=1;" edge="1" parent="1" source="XetIG6lo_GdONwsDEzCl-6" target="XetIG6lo_GdONwsDEzCl-10">
          <mxGeometry relative="1" as="geometry" />
        </mxCell>
        <mxCell id="XetIG6lo_GdONwsDEzCl-6" value="Вывод array[i]" style="shape=parallelogram;perimeter=parallelogramPerimeter;whiteSpace=wrap;html=1;fixedSize=1;" vertex="1" parent="1">
          <mxGeometry x="20" y="730" width="200" height="30" as="geometry" />
        </mxCell>
        <mxCell id="XetIG6lo_GdONwsDEzCl-9" style="edgeStyle=orthogonalEdgeStyle;rounded=0;orthogonalLoop=1;jettySize=auto;html=1;" edge="1" parent="1" source="XetIG6lo_GdONwsDEzCl-10" target="XetIG6lo_GdONwsDEzCl-11">
          <mxGeometry relative="1" as="geometry" />
        </mxCell>
        <mxCell id="XetIG6lo_GdONwsDEzCl-10" value="i = i + 1" style="rounded=0;whiteSpace=wrap;html=1;" vertex="1" parent="1">
          <mxGeometry x="20" y="780" width="200" height="30" as="geometry" />
        </mxCell>
        <mxCell id="XetIG6lo_GdONwsDEzCl-14" style="edgeStyle=orthogonalEdgeStyle;rounded=0;orthogonalLoop=1;jettySize=auto;html=1;" edge="1" parent="1" source="XetIG6lo_GdONwsDEzCl-11" target="XetIG6lo_GdONwsDEzCl-13">
          <mxGeometry relative="1" as="geometry" />
        </mxCell>
        <mxCell id="XetIG6lo_GdONwsDEzCl-11" value="Ввод массива" style="shape=loopLimit;whiteSpace=wrap;html=1;direction=west;" vertex="1" parent="1">
          <mxGeometry x="20" y="830" width="200" height="40" as="geometry" />
        </mxCell>
        <mxCell id="XetIG6lo_GdONwsDEzCl-13" value="Конец" style="rounded=1;whiteSpace=wrap;html=1;arcSize=50;" vertex="1" parent="1">
          <mxGeometry x="20" y="890" width="200" height="30" as="geometry" />
        </mxCell>
        <mxCell id="XetIG6lo_GdONwsDEzCl-18" style="edgeStyle=orthogonalEdgeStyle;rounded=0;orthogonalLoop=1;jettySize=auto;html=1;" edge="1" parent="1" source="XetIG6lo_GdONwsDEzCl-15" target="XetIG6lo_GdONwsDEzCl-17">
          <mxGeometry relative="1" as="geometry" />
        </mxCell>
        <mxCell id="XetIG6lo_GdONwsDEzCl-15" value="Начало&lt;div&gt;Сортировка&lt;/div&gt;" style="rounded=1;whiteSpace=wrap;html=1;arcSize=50;" vertex="1" parent="1">
          <mxGeometry x="640" y="20" width="200" height="30" as="geometry" />
        </mxCell>
        <mxCell id="XetIG6lo_GdONwsDEzCl-23" style="edgeStyle=orthogonalEdgeStyle;rounded=0;orthogonalLoop=1;jettySize=auto;html=1;" edge="1" parent="1" source="XetIG6lo_GdONwsDEzCl-17" target="XetIG6lo_GdONwsDEzCl-21">
          <mxGeometry relative="1" as="geometry" />
        </mxCell>
        <mxCell id="XetIG6lo_GdONwsDEzCl-17" value="n, array, comp" style="shape=parallelogram;perimeter=parallelogramPerimeter;whiteSpace=wrap;html=1;fixedSize=1;" vertex="1" parent="1">
          <mxGeometry x="640" y="70" width="200" height="30" as="geometry" />
        </mxCell>
        <mxCell id="XetIG6lo_GdONwsDEzCl-19" value="n - по значению&lt;div&gt;array, comp - по ссылке&lt;/div&gt;" style="strokeWidth=1;html=1;shape=mxgraph.flowchart.annotation_1;align=left;pointerEvents=1;" vertex="1" parent="1">
          <mxGeometry x="870" y="70" width="5" height="30" as="geometry" />
        </mxCell>
        <mxCell id="XetIG6lo_GdONwsDEzCl-20" value="" style="endArrow=none;html=1;rounded=0;entryX=0;entryY=0.5;entryDx=0;entryDy=0;entryPerimeter=0;dashed=1;" edge="1" target="XetIG6lo_GdONwsDEzCl-19" parent="1" source="XetIG6lo_GdONwsDEzCl-17">
          <mxGeometry width="50" height="50" relative="1" as="geometry">
            <mxPoint x="840" y="85" as="sourcePoint" />
            <mxPoint x="920" y="75" as="targetPoint" />
          </mxGeometry>
        </mxCell>
        <mxCell id="XetIG6lo_GdONwsDEzCl-25" style="edgeStyle=orthogonalEdgeStyle;rounded=0;orthogonalLoop=1;jettySize=auto;html=1;" edge="1" parent="1" source="XetIG6lo_GdONwsDEzCl-21" target="XetIG6lo_GdONwsDEzCl-24">
          <mxGeometry relative="1" as="geometry" />
        </mxCell>
        <mxCell id="XetIG6lo_GdONwsDEzCl-21" value="max = array[1]&lt;div&gt;min = array[1]&lt;/div&gt;" style="rounded=0;whiteSpace=wrap;html=1;" vertex="1" parent="1">
          <mxGeometry x="640" y="120" width="200" height="40" as="geometry" />
        </mxCell>
        <mxCell id="XetIG6lo_GdONwsDEzCl-27" style="edgeStyle=orthogonalEdgeStyle;rounded=0;orthogonalLoop=1;jettySize=auto;html=1;" edge="1" parent="1" source="XetIG6lo_GdONwsDEzCl-24" target="XetIG6lo_GdONwsDEzCl-26">
          <mxGeometry relative="1" as="geometry" />
        </mxCell>
        <mxCell id="XetIG6lo_GdONwsDEzCl-24" value="i = 2" style="rounded=0;whiteSpace=wrap;html=1;" vertex="1" parent="1">
          <mxGeometry x="640" y="180" width="200" height="30" as="geometry" />
        </mxCell>
        <mxCell id="XetIG6lo_GdONwsDEzCl-29" style="edgeStyle=orthogonalEdgeStyle;rounded=0;orthogonalLoop=1;jettySize=auto;html=1;" edge="1" parent="1" source="XetIG6lo_GdONwsDEzCl-26" target="XetIG6lo_GdONwsDEzCl-28">
          <mxGeometry relative="1" as="geometry" />
        </mxCell>
        <mxCell id="XetIG6lo_GdONwsDEzCl-26" value="&lt;div&gt;Определение &amp;gt; n&lt;/div&gt;" style="shape=loopLimit;whiteSpace=wrap;html=1;" vertex="1" parent="1">
          <mxGeometry x="640" y="230" width="200" height="40" as="geometry" />
        </mxCell>
        <mxCell id="XetIG6lo_GdONwsDEzCl-31" style="edgeStyle=orthogonalEdgeStyle;rounded=0;orthogonalLoop=1;jettySize=auto;html=1;" edge="1" parent="1" source="XetIG6lo_GdONwsDEzCl-28" target="XetIG6lo_GdONwsDEzCl-30">
          <mxGeometry relative="1" as="geometry" />
        </mxCell>
        <mxCell id="XetIG6lo_GdONwsDEzCl-28" value="array[i] &amp;lt; min" style="rhombus;whiteSpace=wrap;html=1;" vertex="1" parent="1">
          <mxGeometry x="640" y="290" width="200" height="40" as="geometry" />
        </mxCell>
        <mxCell id="XetIG6lo_GdONwsDEzCl-36" style="edgeStyle=orthogonalEdgeStyle;rounded=0;orthogonalLoop=1;jettySize=auto;html=1;" edge="1" parent="1" source="XetIG6lo_GdONwsDEzCl-30" target="XetIG6lo_GdONwsDEzCl-35">
          <mxGeometry relative="1" as="geometry" />
        </mxCell>
        <mxCell id="XetIG6lo_GdONwsDEzCl-30" value="min = array[i]" style="rounded=0;whiteSpace=wrap;html=1;" vertex="1" parent="1">
          <mxGeometry x="640" y="350" width="200" height="30" as="geometry" />
        </mxCell>
        <mxCell id="XetIG6lo_GdONwsDEzCl-32" value="max - максимальное число&lt;div&gt;min - минимальное число&lt;/div&gt;" style="strokeWidth=1;html=1;shape=mxgraph.flowchart.annotation_1;align=left;pointerEvents=1;" vertex="1" parent="1">
          <mxGeometry x="870" y="125" width="5" height="30" as="geometry" />
        </mxCell>
        <mxCell id="XetIG6lo_GdONwsDEzCl-33" value="" style="endArrow=none;html=1;rounded=0;entryX=0;entryY=0.5;entryDx=0;entryDy=0;entryPerimeter=0;exitX=1;exitY=0.5;exitDx=0;exitDy=0;dashed=1;" edge="1" target="XetIG6lo_GdONwsDEzCl-32" parent="1">
          <mxGeometry width="50" height="50" relative="1" as="geometry">
            <mxPoint x="840" y="140" as="sourcePoint" />
            <mxPoint x="920" y="130" as="targetPoint" />
          </mxGeometry>
        </mxCell>
        <mxCell id="XetIG6lo_GdONwsDEzCl-34" value="Да" style="text;html=1;align=center;verticalAlign=middle;resizable=0;points=[];autosize=1;strokeColor=none;fillColor=none;" vertex="1" parent="1">
          <mxGeometry x="700" y="320" width="40" height="30" as="geometry" />
        </mxCell>
        <mxCell id="XetIG6lo_GdONwsDEzCl-43" style="edgeStyle=orthogonalEdgeStyle;rounded=0;orthogonalLoop=1;jettySize=auto;html=1;" edge="1" parent="1" source="XetIG6lo_GdONwsDEzCl-35" target="XetIG6lo_GdONwsDEzCl-42">
          <mxGeometry relative="1" as="geometry" />
        </mxCell>
        <mxCell id="XetIG6lo_GdONwsDEzCl-35" value="array[i] &amp;gt; max" style="rhombus;whiteSpace=wrap;html=1;" vertex="1" parent="1">
          <mxGeometry x="640" y="420" width="200" height="40" as="geometry" />
        </mxCell>
        <mxCell id="XetIG6lo_GdONwsDEzCl-38" value="" style="endArrow=none;html=1;rounded=0;" edge="1" parent="1">
          <mxGeometry width="50" height="50" relative="1" as="geometry">
            <mxPoint x="740" y="400" as="sourcePoint" />
            <mxPoint x="860" y="400" as="targetPoint" />
          </mxGeometry>
        </mxCell>
        <mxCell id="XetIG6lo_GdONwsDEzCl-39" value="" style="endArrow=none;html=1;rounded=0;" edge="1" parent="1">
          <mxGeometry width="50" height="50" relative="1" as="geometry">
            <mxPoint x="860" y="400" as="sourcePoint" />
            <mxPoint x="860" y="310" as="targetPoint" />
          </mxGeometry>
        </mxCell>
        <mxCell id="XetIG6lo_GdONwsDEzCl-40" value="" style="endArrow=none;html=1;rounded=0;exitX=1;exitY=0.5;exitDx=0;exitDy=0;" edge="1" parent="1" source="XetIG6lo_GdONwsDEzCl-28">
          <mxGeometry width="50" height="50" relative="1" as="geometry">
            <mxPoint x="790" y="390" as="sourcePoint" />
            <mxPoint x="860" y="310" as="targetPoint" />
          </mxGeometry>
        </mxCell>
        <mxCell id="XetIG6lo_GdONwsDEzCl-41" value="Нет" style="text;html=1;align=center;verticalAlign=middle;resizable=0;points=[];autosize=1;strokeColor=none;fillColor=none;" vertex="1" parent="1">
          <mxGeometry x="827" y="280" width="40" height="30" as="geometry" />
        </mxCell>
        <mxCell id="XetIG6lo_GdONwsDEzCl-54" style="edgeStyle=orthogonalEdgeStyle;rounded=0;orthogonalLoop=1;jettySize=auto;html=1;" edge="1" parent="1" source="XetIG6lo_GdONwsDEzCl-42" target="XetIG6lo_GdONwsDEzCl-53">
          <mxGeometry relative="1" as="geometry" />
        </mxCell>
        <mxCell id="XetIG6lo_GdONwsDEzCl-42" value="max = array[i]" style="rounded=0;whiteSpace=wrap;html=1;" vertex="1" parent="1">
          <mxGeometry x="640" y="480" width="200" height="30" as="geometry" />
        </mxCell>
        <mxCell id="XetIG6lo_GdONwsDEzCl-52" style="edgeStyle=orthogonalEdgeStyle;rounded=0;orthogonalLoop=1;jettySize=auto;html=1;" edge="1" parent="1" source="XetIG6lo_GdONwsDEzCl-44" target="XetIG6lo_GdONwsDEzCl-51">
          <mxGeometry relative="1" as="geometry" />
        </mxCell>
        <mxCell id="XetIG6lo_GdONwsDEzCl-44" value="range = max - min + 1" style="rounded=0;whiteSpace=wrap;html=1;" vertex="1" parent="1">
          <mxGeometry x="640" y="610" width="200" height="30" as="geometry" />
        </mxCell>
        <mxCell id="XetIG6lo_GdONwsDEzCl-46" value="" style="endArrow=none;html=1;rounded=0;" edge="1" parent="1">
          <mxGeometry width="50" height="50" relative="1" as="geometry">
            <mxPoint x="740" y="530" as="sourcePoint" />
            <mxPoint x="860" y="530" as="targetPoint" />
          </mxGeometry>
        </mxCell>
        <mxCell id="XetIG6lo_GdONwsDEzCl-47" value="" style="endArrow=none;html=1;rounded=0;" edge="1" parent="1">
          <mxGeometry width="50" height="50" relative="1" as="geometry">
            <mxPoint x="860" y="530" as="sourcePoint" />
            <mxPoint x="860" y="440" as="targetPoint" />
          </mxGeometry>
        </mxCell>
        <mxCell id="XetIG6lo_GdONwsDEzCl-48" value="" style="endArrow=none;html=1;rounded=0;exitX=1;exitY=0.5;exitDx=0;exitDy=0;" edge="1" parent="1" source="XetIG6lo_GdONwsDEzCl-35">
          <mxGeometry width="50" height="50" relative="1" as="geometry">
            <mxPoint x="770" y="490" as="sourcePoint" />
            <mxPoint x="860" y="440" as="targetPoint" />
          </mxGeometry>
        </mxCell>
        <mxCell id="XetIG6lo_GdONwsDEzCl-49" value="Да" style="text;html=1;align=center;verticalAlign=middle;resizable=0;points=[];autosize=1;strokeColor=none;fillColor=none;" vertex="1" parent="1">
          <mxGeometry x="700" y="450" width="40" height="30" as="geometry" />
        </mxCell>
        <mxCell id="XetIG6lo_GdONwsDEzCl-50" value="Нет" style="text;html=1;align=center;verticalAlign=middle;resizable=0;points=[];autosize=1;strokeColor=none;fillColor=none;" vertex="1" parent="1">
          <mxGeometry x="827" y="410" width="40" height="30" as="geometry" />
        </mxCell>
        <mxCell id="XetIG6lo_GdONwsDEzCl-57" style="edgeStyle=orthogonalEdgeStyle;rounded=0;orthogonalLoop=1;jettySize=auto;html=1;" edge="1" parent="1" source="XetIG6lo_GdONwsDEzCl-51" target="XetIG6lo_GdONwsDEzCl-56">
          <mxGeometry relative="1" as="geometry" />
        </mxCell>
        <mxCell id="XetIG6lo_GdONwsDEzCl-51" value="i = 1" style="rounded=0;whiteSpace=wrap;html=1;" vertex="1" parent="1">
          <mxGeometry x="640" y="659" width="200" height="30" as="geometry" />
        </mxCell>
        <mxCell id="XetIG6lo_GdONwsDEzCl-55" style="edgeStyle=orthogonalEdgeStyle;rounded=0;orthogonalLoop=1;jettySize=auto;html=1;" edge="1" parent="1" source="XetIG6lo_GdONwsDEzCl-53" target="XetIG6lo_GdONwsDEzCl-44">
          <mxGeometry relative="1" as="geometry" />
        </mxCell>
        <mxCell id="XetIG6lo_GdONwsDEzCl-53" value="Определение" style="shape=loopLimit;whiteSpace=wrap;html=1;direction=west;" vertex="1" parent="1">
          <mxGeometry x="640" y="550" width="200" height="40" as="geometry" />
        </mxCell>
        <mxCell id="XetIG6lo_GdONwsDEzCl-59" style="edgeStyle=orthogonalEdgeStyle;rounded=0;orthogonalLoop=1;jettySize=auto;html=1;" edge="1" parent="1" source="XetIG6lo_GdONwsDEzCl-56" target="XetIG6lo_GdONwsDEzCl-58">
          <mxGeometry relative="1" as="geometry" />
        </mxCell>
        <mxCell id="XetIG6lo_GdONwsDEzCl-56" value="Подсчет&lt;div&gt;i &amp;gt; n&lt;/div&gt;" style="shape=loopLimit;whiteSpace=wrap;html=1;" vertex="1" parent="1">
          <mxGeometry x="640" y="710" width="200" height="40" as="geometry" />
        </mxCell>
        <mxCell id="XetIG6lo_GdONwsDEzCl-63" style="edgeStyle=orthogonalEdgeStyle;rounded=0;orthogonalLoop=1;jettySize=auto;html=1;" edge="1" parent="1" source="XetIG6lo_GdONwsDEzCl-58" target="XetIG6lo_GdONwsDEzCl-62">
          <mxGeometry relative="1" as="geometry" />
        </mxCell>
        <mxCell id="XetIG6lo_GdONwsDEzCl-58" value="count[array[i] - min]++" style="rounded=0;whiteSpace=wrap;html=1;" vertex="1" parent="1">
          <mxGeometry x="640" y="770" width="200" height="30" as="geometry" />
        </mxCell>
        <mxCell id="XetIG6lo_GdONwsDEzCl-60" value="&lt;div&gt;count - массив для подсчетка каждого числа&lt;/div&gt;++ - инкременет" style="strokeWidth=1;html=1;shape=mxgraph.flowchart.annotation_1;align=left;pointerEvents=1;" vertex="1" parent="1">
          <mxGeometry x="870" y="770" width="5" height="30" as="geometry" />
        </mxCell>
        <mxCell id="XetIG6lo_GdONwsDEzCl-61" value="" style="endArrow=none;html=1;rounded=0;entryX=0;entryY=0.5;entryDx=0;entryDy=0;entryPerimeter=0;exitX=1;exitY=0.5;exitDx=0;exitDy=0;dashed=1;" edge="1" target="XetIG6lo_GdONwsDEzCl-60" parent="1">
          <mxGeometry width="50" height="50" relative="1" as="geometry">
            <mxPoint x="840" y="785" as="sourcePoint" />
            <mxPoint x="920" y="775" as="targetPoint" />
          </mxGeometry>
        </mxCell>
        <mxCell id="XetIG6lo_GdONwsDEzCl-65" style="edgeStyle=orthogonalEdgeStyle;rounded=0;orthogonalLoop=1;jettySize=auto;html=1;" edge="1" parent="1" source="XetIG6lo_GdONwsDEzCl-62" target="XetIG6lo_GdONwsDEzCl-64">
          <mxGeometry relative="1" as="geometry" />
        </mxCell>
        <mxCell id="XetIG6lo_GdONwsDEzCl-62" value="i = i + 1" style="rounded=0;whiteSpace=wrap;html=1;" vertex="1" parent="1">
          <mxGeometry x="640" y="820" width="200" height="30" as="geometry" />
        </mxCell>
        <mxCell id="XetIG6lo_GdONwsDEzCl-70" style="edgeStyle=orthogonalEdgeStyle;rounded=0;orthogonalLoop=1;jettySize=auto;html=1;" edge="1" parent="1" source="XetIG6lo_GdONwsDEzCl-64" target="XetIG6lo_GdONwsDEzCl-67">
          <mxGeometry relative="1" as="geometry" />
        </mxCell>
        <mxCell id="XetIG6lo_GdONwsDEzCl-64" value="Подсчет" style="shape=loopLimit;whiteSpace=wrap;html=1;direction=west;" vertex="1" parent="1">
          <mxGeometry x="640" y="870" width="200" height="40" as="geometry" />
        </mxCell>
        <mxCell id="XetIG6lo_GdONwsDEzCl-66" value="comp ()" style="group" vertex="1" connectable="0" parent="1">
          <mxGeometry x="640" y="930" width="200" height="30" as="geometry" />
        </mxCell>
        <mxCell id="XetIG6lo_GdONwsDEzCl-67" value="comp (range, min, array, count)" style="rounded=0;whiteSpace=wrap;html=1;" vertex="1" parent="XetIG6lo_GdONwsDEzCl-66">
          <mxGeometry width="200" height="30" as="geometry" />
        </mxCell>
        <mxCell id="XetIG6lo_GdONwsDEzCl-68" value="" style="endArrow=none;html=1;rounded=0;" edge="1" parent="XetIG6lo_GdONwsDEzCl-66">
          <mxGeometry width="50" height="50" relative="1" as="geometry">
            <mxPoint x="10" as="sourcePoint" />
            <mxPoint x="10" y="30" as="targetPoint" />
          </mxGeometry>
        </mxCell>
        <mxCell id="XetIG6lo_GdONwsDEzCl-69" value="" style="endArrow=none;html=1;rounded=0;" edge="1" parent="XetIG6lo_GdONwsDEzCl-66">
          <mxGeometry width="50" height="50" relative="1" as="geometry">
            <mxPoint x="190" as="sourcePoint" />
            <mxPoint x="190" y="30" as="targetPoint" />
          </mxGeometry>
        </mxCell>
        <mxCell id="XetIG6lo_GdONwsDEzCl-71" value="Конец&lt;div&gt;сортировка&lt;/div&gt;" style="rounded=1;whiteSpace=wrap;html=1;arcSize=50;" vertex="1" parent="1">
          <mxGeometry x="640" y="980" width="200" height="30" as="geometry" />
        </mxCell>
        <mxCell id="XetIG6lo_GdONwsDEzCl-72" style="edgeStyle=orthogonalEdgeStyle;rounded=0;orthogonalLoop=1;jettySize=auto;html=1;" edge="1" parent="1" source="XetIG6lo_GdONwsDEzCl-67" target="XetIG6lo_GdONwsDEzCl-71">
          <mxGeometry relative="1" as="geometry" />
        </mxCell>
        <mxCell id="XetIG6lo_GdONwsDEzCl-76" style="edgeStyle=orthogonalEdgeStyle;rounded=0;orthogonalLoop=1;jettySize=auto;html=1;" edge="1" parent="1" source="XetIG6lo_GdONwsDEzCl-73" target="XetIG6lo_GdONwsDEzCl-75">
          <mxGeometry relative="1" as="geometry" />
        </mxCell>
        <mxCell id="XetIG6lo_GdONwsDEzCl-73" value="Начало&lt;div&gt;Вверх&lt;/div&gt;" style="rounded=1;whiteSpace=wrap;html=1;arcSize=50;" vertex="1" parent="1">
          <mxGeometry x="1160" y="20" width="200" height="30" as="geometry" />
        </mxCell>
        <mxCell id="XetIG6lo_GdONwsDEzCl-80" style="edgeStyle=orthogonalEdgeStyle;rounded=0;orthogonalLoop=1;jettySize=auto;html=1;" edge="1" parent="1" source="XetIG6lo_GdONwsDEzCl-75" target="XetIG6lo_GdONwsDEzCl-79">
          <mxGeometry relative="1" as="geometry" />
        </mxCell>
        <mxCell id="XetIG6lo_GdONwsDEzCl-75" value="Ввод range, min, array, count" style="shape=parallelogram;perimeter=parallelogramPerimeter;whiteSpace=wrap;html=1;fixedSize=1;" vertex="1" parent="1">
          <mxGeometry x="1160" y="70" width="200" height="30" as="geometry" />
        </mxCell>
        <mxCell id="XetIG6lo_GdONwsDEzCl-77" value="range, min - по значению&lt;div&gt;array, count - по ссылке&lt;/div&gt;" style="strokeWidth=1;html=1;shape=mxgraph.flowchart.annotation_1;align=left;pointerEvents=1;" vertex="1" parent="1">
          <mxGeometry x="1390" y="70" width="5" height="30" as="geometry" />
        </mxCell>
        <mxCell id="XetIG6lo_GdONwsDEzCl-78" value="" style="endArrow=none;html=1;rounded=0;entryX=0;entryY=0.5;entryDx=0;entryDy=0;entryPerimeter=0;dashed=1;" edge="1" target="XetIG6lo_GdONwsDEzCl-77" parent="1" source="XetIG6lo_GdONwsDEzCl-75">
          <mxGeometry width="50" height="50" relative="1" as="geometry">
            <mxPoint x="1360" y="85" as="sourcePoint" />
            <mxPoint x="1440" y="75" as="targetPoint" />
          </mxGeometry>
        </mxCell>
        <mxCell id="XetIG6lo_GdONwsDEzCl-84" style="edgeStyle=orthogonalEdgeStyle;rounded=0;orthogonalLoop=1;jettySize=auto;html=1;" edge="1" parent="1" source="XetIG6lo_GdONwsDEzCl-79" target="XetIG6lo_GdONwsDEzCl-83">
          <mxGeometry relative="1" as="geometry" />
        </mxCell>
        <mxCell id="XetIG6lo_GdONwsDEzCl-79" value="j = 1,&amp;nbsp;&lt;span style=&quot;background-color: transparent; color: light-dark(rgb(0, 0, 0), rgb(255, 255, 255));&quot;&gt;i = 1&lt;/span&gt;" style="rounded=0;whiteSpace=wrap;html=1;" vertex="1" parent="1">
          <mxGeometry x="1160" y="120" width="200" height="30" as="geometry" />
        </mxCell>
        <mxCell id="XetIG6lo_GdONwsDEzCl-81" value="j - номер элемента массива" style="strokeWidth=1;html=1;shape=mxgraph.flowchart.annotation_1;align=left;pointerEvents=1;" vertex="1" parent="1">
          <mxGeometry x="1390" y="120" width="5" height="30" as="geometry" />
        </mxCell>
        <mxCell id="XetIG6lo_GdONwsDEzCl-82" value="" style="endArrow=none;html=1;rounded=0;entryX=0;entryY=0.5;entryDx=0;entryDy=0;entryPerimeter=0;exitX=1;exitY=0.5;exitDx=0;exitDy=0;dashed=1;" edge="1" target="XetIG6lo_GdONwsDEzCl-81" parent="1">
          <mxGeometry width="50" height="50" relative="1" as="geometry">
            <mxPoint x="1360" y="135" as="sourcePoint" />
            <mxPoint x="1440" y="125" as="targetPoint" />
          </mxGeometry>
        </mxCell>
        <mxCell id="XetIG6lo_GdONwsDEzCl-86" style="edgeStyle=orthogonalEdgeStyle;rounded=0;orthogonalLoop=1;jettySize=auto;html=1;" edge="1" parent="1" source="XetIG6lo_GdONwsDEzCl-83" target="XetIG6lo_GdONwsDEzCl-85">
          <mxGeometry relative="1" as="geometry" />
        </mxCell>
        <mxCell id="XetIG6lo_GdONwsDEzCl-83" value="&lt;div&gt;Перебор&lt;/div&gt;&lt;div&gt;i &amp;gt; range&lt;/div&gt;" style="shape=loopLimit;whiteSpace=wrap;html=1;" vertex="1" parent="1">
          <mxGeometry x="1160" y="170" width="200" height="40" as="geometry" />
        </mxCell>
        <mxCell id="XetIG6lo_GdONwsDEzCl-88" style="edgeStyle=orthogonalEdgeStyle;rounded=0;orthogonalLoop=1;jettySize=auto;html=1;" edge="1" parent="1" source="XetIG6lo_GdONwsDEzCl-85">
          <mxGeometry relative="1" as="geometry">
            <mxPoint x="1260.0285714285715" y="290" as="targetPoint" />
          </mxGeometry>
        </mxCell>
        <mxCell id="XetIG6lo_GdONwsDEzCl-85" value="Сортировка&lt;div&gt;count[i] = 0&lt;/div&gt;" style="shape=loopLimit;whiteSpace=wrap;html=1;" vertex="1" parent="1">
          <mxGeometry x="1160" y="230" width="200" height="40" as="geometry" />
        </mxCell>
        <mxCell id="XetIG6lo_GdONwsDEzCl-91" style="edgeStyle=orthogonalEdgeStyle;rounded=0;orthogonalLoop=1;jettySize=auto;html=1;" edge="1" parent="1" source="XetIG6lo_GdONwsDEzCl-89" target="XetIG6lo_GdONwsDEzCl-90">
          <mxGeometry relative="1" as="geometry" />
        </mxCell>
        <mxCell id="XetIG6lo_GdONwsDEzCl-89" value="count[i] = count[i] - 1&lt;div&gt;array[j] = 1 + min&lt;/div&gt;" style="rounded=0;whiteSpace=wrap;html=1;" vertex="1" parent="1">
          <mxGeometry x="1160" y="290" width="200" height="40" as="geometry" />
        </mxCell>
        <mxCell id="XetIG6lo_GdONwsDEzCl-94" style="edgeStyle=orthogonalEdgeStyle;rounded=0;orthogonalLoop=1;jettySize=auto;html=1;" edge="1" parent="1" source="XetIG6lo_GdONwsDEzCl-90" target="XetIG6lo_GdONwsDEzCl-93">
          <mxGeometry relative="1" as="geometry" />
        </mxCell>
        <mxCell id="XetIG6lo_GdONwsDEzCl-90" value="j = j + 1" style="rounded=0;whiteSpace=wrap;html=1;" vertex="1" parent="1">
          <mxGeometry x="1160" y="350" width="200" height="30" as="geometry" />
        </mxCell>
        <mxCell id="XetIG6lo_GdONwsDEzCl-96" style="edgeStyle=orthogonalEdgeStyle;rounded=0;orthogonalLoop=1;jettySize=auto;html=1;" edge="1" parent="1" source="XetIG6lo_GdONwsDEzCl-93" target="XetIG6lo_GdONwsDEzCl-95">
          <mxGeometry relative="1" as="geometry" />
        </mxCell>
        <mxCell id="XetIG6lo_GdONwsDEzCl-93" value="Сортировка" style="shape=loopLimit;whiteSpace=wrap;html=1;direction=west;" vertex="1" parent="1">
          <mxGeometry x="1160" y="400" width="200" height="40" as="geometry" />
        </mxCell>
        <mxCell id="XetIG6lo_GdONwsDEzCl-99" style="edgeStyle=orthogonalEdgeStyle;rounded=0;orthogonalLoop=1;jettySize=auto;html=1;" edge="1" parent="1" source="XetIG6lo_GdONwsDEzCl-95" target="XetIG6lo_GdONwsDEzCl-98">
          <mxGeometry relative="1" as="geometry" />
        </mxCell>
        <mxCell id="XetIG6lo_GdONwsDEzCl-95" value="i = i + 1" style="rounded=0;whiteSpace=wrap;html=1;" vertex="1" parent="1">
          <mxGeometry x="1160" y="460" width="200" height="30" as="geometry" />
        </mxCell>
        <mxCell id="XetIG6lo_GdONwsDEzCl-101" style="edgeStyle=orthogonalEdgeStyle;rounded=0;orthogonalLoop=1;jettySize=auto;html=1;" edge="1" parent="1" source="XetIG6lo_GdONwsDEzCl-98" target="XetIG6lo_GdONwsDEzCl-100">
          <mxGeometry relative="1" as="geometry" />
        </mxCell>
        <mxCell id="XetIG6lo_GdONwsDEzCl-98" value="Перебор" style="shape=loopLimit;whiteSpace=wrap;html=1;direction=west;" vertex="1" parent="1">
          <mxGeometry x="1160" y="510" width="200" height="40" as="geometry" />
        </mxCell>
        <mxCell id="XetIG6lo_GdONwsDEzCl-100" value="Конец&lt;div&gt;Вверх&lt;/div&gt;" style="rounded=1;whiteSpace=wrap;html=1;arcSize=50;" vertex="1" parent="1">
          <mxGeometry x="1160" y="569.5" width="200" height="30" as="geometry" />
        </mxCell>
        <mxCell id="XetIG6lo_GdONwsDEzCl-102" style="edgeStyle=orthogonalEdgeStyle;rounded=0;orthogonalLoop=1;jettySize=auto;html=1;" edge="1" parent="1" source="XetIG6lo_GdONwsDEzCl-103" target="XetIG6lo_GdONwsDEzCl-105">
          <mxGeometry relative="1" as="geometry" />
        </mxCell>
        <mxCell id="XetIG6lo_GdONwsDEzCl-103" value="Начало&lt;div&gt;Вниз&lt;/div&gt;" style="rounded=1;whiteSpace=wrap;html=1;arcSize=50;" vertex="1" parent="1">
          <mxGeometry x="1600" y="20.25" width="200" height="30" as="geometry" />
        </mxCell>
        <mxCell id="XetIG6lo_GdONwsDEzCl-104" style="edgeStyle=orthogonalEdgeStyle;rounded=0;orthogonalLoop=1;jettySize=auto;html=1;" edge="1" parent="1" source="XetIG6lo_GdONwsDEzCl-105" target="XetIG6lo_GdONwsDEzCl-109">
          <mxGeometry relative="1" as="geometry" />
        </mxCell>
        <mxCell id="XetIG6lo_GdONwsDEzCl-105" value="Ввод range, min, array, count" style="shape=parallelogram;perimeter=parallelogramPerimeter;whiteSpace=wrap;html=1;fixedSize=1;" vertex="1" parent="1">
          <mxGeometry x="1600" y="70.25" width="200" height="30" as="geometry" />
        </mxCell>
        <mxCell id="XetIG6lo_GdONwsDEzCl-106" value="range, min - по значению&lt;div&gt;array, count - по ссылке&lt;/div&gt;" style="strokeWidth=1;html=1;shape=mxgraph.flowchart.annotation_1;align=left;pointerEvents=1;" vertex="1" parent="1">
          <mxGeometry x="1830" y="70.25" width="5" height="30" as="geometry" />
        </mxCell>
        <mxCell id="XetIG6lo_GdONwsDEzCl-107" value="" style="endArrow=none;html=1;rounded=0;entryX=0;entryY=0.5;entryDx=0;entryDy=0;entryPerimeter=0;dashed=1;" edge="1" parent="1" source="XetIG6lo_GdONwsDEzCl-105" target="XetIG6lo_GdONwsDEzCl-106">
          <mxGeometry width="50" height="50" relative="1" as="geometry">
            <mxPoint x="1800" y="85.25" as="sourcePoint" />
            <mxPoint x="1880" y="75.25" as="targetPoint" />
          </mxGeometry>
        </mxCell>
        <mxCell id="XetIG6lo_GdONwsDEzCl-108" style="edgeStyle=orthogonalEdgeStyle;rounded=0;orthogonalLoop=1;jettySize=auto;html=1;" edge="1" parent="1" source="XetIG6lo_GdONwsDEzCl-109" target="XetIG6lo_GdONwsDEzCl-113">
          <mxGeometry relative="1" as="geometry" />
        </mxCell>
        <mxCell id="XetIG6lo_GdONwsDEzCl-109" value="j = 1,&amp;nbsp;&lt;span style=&quot;background-color: transparent; color: light-dark(rgb(0, 0, 0), rgb(255, 255, 255));&quot;&gt;i = range&lt;/span&gt;" style="rounded=0;whiteSpace=wrap;html=1;" vertex="1" parent="1">
          <mxGeometry x="1600" y="120.25" width="200" height="30" as="geometry" />
        </mxCell>
        <mxCell id="XetIG6lo_GdONwsDEzCl-110" value="j - номер элемента массива" style="strokeWidth=1;html=1;shape=mxgraph.flowchart.annotation_1;align=left;pointerEvents=1;" vertex="1" parent="1">
          <mxGeometry x="1830" y="120.25" width="5" height="30" as="geometry" />
        </mxCell>
        <mxCell id="XetIG6lo_GdONwsDEzCl-111" value="" style="endArrow=none;html=1;rounded=0;entryX=0;entryY=0.5;entryDx=0;entryDy=0;entryPerimeter=0;exitX=1;exitY=0.5;exitDx=0;exitDy=0;dashed=1;" edge="1" parent="1" target="XetIG6lo_GdONwsDEzCl-110">
          <mxGeometry width="50" height="50" relative="1" as="geometry">
            <mxPoint x="1800" y="135.25" as="sourcePoint" />
            <mxPoint x="1880" y="125.25" as="targetPoint" />
          </mxGeometry>
        </mxCell>
        <mxCell id="XetIG6lo_GdONwsDEzCl-112" style="edgeStyle=orthogonalEdgeStyle;rounded=0;orthogonalLoop=1;jettySize=auto;html=1;" edge="1" parent="1" source="XetIG6lo_GdONwsDEzCl-113" target="XetIG6lo_GdONwsDEzCl-115">
          <mxGeometry relative="1" as="geometry" />
        </mxCell>
        <mxCell id="XetIG6lo_GdONwsDEzCl-113" value="&lt;div&gt;Перебор&lt;/div&gt;&lt;div&gt;i &amp;lt; 0&lt;/div&gt;" style="shape=loopLimit;whiteSpace=wrap;html=1;" vertex="1" parent="1">
          <mxGeometry x="1600" y="170.25" width="200" height="40" as="geometry" />
        </mxCell>
        <mxCell id="XetIG6lo_GdONwsDEzCl-114" style="edgeStyle=orthogonalEdgeStyle;rounded=0;orthogonalLoop=1;jettySize=auto;html=1;" edge="1" parent="1" source="XetIG6lo_GdONwsDEzCl-115">
          <mxGeometry relative="1" as="geometry">
            <mxPoint x="1700.0285714285715" y="290.25" as="targetPoint" />
          </mxGeometry>
        </mxCell>
        <mxCell id="XetIG6lo_GdONwsDEzCl-115" value="Сортировка&lt;div&gt;count[i] = 0&lt;/div&gt;" style="shape=loopLimit;whiteSpace=wrap;html=1;" vertex="1" parent="1">
          <mxGeometry x="1600" y="230.25" width="200" height="40" as="geometry" />
        </mxCell>
        <mxCell id="XetIG6lo_GdONwsDEzCl-116" style="edgeStyle=orthogonalEdgeStyle;rounded=0;orthogonalLoop=1;jettySize=auto;html=1;" edge="1" parent="1" source="XetIG6lo_GdONwsDEzCl-117" target="XetIG6lo_GdONwsDEzCl-119">
          <mxGeometry relative="1" as="geometry" />
        </mxCell>
        <mxCell id="XetIG6lo_GdONwsDEzCl-117" value="count[i] = count[i] - 1&lt;div&gt;array[j] = 1 + min&lt;/div&gt;" style="rounded=0;whiteSpace=wrap;html=1;" vertex="1" parent="1">
          <mxGeometry x="1600" y="290.25" width="200" height="40" as="geometry" />
        </mxCell>
        <mxCell id="XetIG6lo_GdONwsDEzCl-118" style="edgeStyle=orthogonalEdgeStyle;rounded=0;orthogonalLoop=1;jettySize=auto;html=1;" edge="1" parent="1" source="XetIG6lo_GdONwsDEzCl-119" target="XetIG6lo_GdONwsDEzCl-121">
          <mxGeometry relative="1" as="geometry" />
        </mxCell>
        <mxCell id="XetIG6lo_GdONwsDEzCl-119" value="j = j + 1" style="rounded=0;whiteSpace=wrap;html=1;" vertex="1" parent="1">
          <mxGeometry x="1600" y="350.25" width="200" height="30" as="geometry" />
        </mxCell>
        <mxCell id="XetIG6lo_GdONwsDEzCl-120" style="edgeStyle=orthogonalEdgeStyle;rounded=0;orthogonalLoop=1;jettySize=auto;html=1;" edge="1" parent="1" source="XetIG6lo_GdONwsDEzCl-121" target="XetIG6lo_GdONwsDEzCl-123">
          <mxGeometry relative="1" as="geometry" />
        </mxCell>
        <mxCell id="XetIG6lo_GdONwsDEzCl-121" value="Сортировка" style="shape=loopLimit;whiteSpace=wrap;html=1;direction=west;" vertex="1" parent="1">
          <mxGeometry x="1600" y="400.25" width="200" height="40" as="geometry" />
        </mxCell>
        <mxCell id="XetIG6lo_GdONwsDEzCl-122" style="edgeStyle=orthogonalEdgeStyle;rounded=0;orthogonalLoop=1;jettySize=auto;html=1;" edge="1" parent="1" source="XetIG6lo_GdONwsDEzCl-123" target="XetIG6lo_GdONwsDEzCl-125">
          <mxGeometry relative="1" as="geometry" />
        </mxCell>
        <mxCell id="XetIG6lo_GdONwsDEzCl-123" value="i = i - 1" style="rounded=0;whiteSpace=wrap;html=1;" vertex="1" parent="1">
          <mxGeometry x="1600" y="460.25" width="200" height="30" as="geometry" />
        </mxCell>
        <mxCell id="XetIG6lo_GdONwsDEzCl-124" style="edgeStyle=orthogonalEdgeStyle;rounded=0;orthogonalLoop=1;jettySize=auto;html=1;" edge="1" parent="1" source="XetIG6lo_GdONwsDEzCl-125" target="XetIG6lo_GdONwsDEzCl-126">
          <mxGeometry relative="1" as="geometry" />
        </mxCell>
        <mxCell id="XetIG6lo_GdONwsDEzCl-125" value="Перебор" style="shape=loopLimit;whiteSpace=wrap;html=1;direction=west;" vertex="1" parent="1">
          <mxGeometry x="1600" y="510.25" width="200" height="40" as="geometry" />
        </mxCell>
        <mxCell id="XetIG6lo_GdONwsDEzCl-126" value="Конец&lt;div&gt;Вниз&lt;br&gt;&lt;/div&gt;" style="rounded=1;whiteSpace=wrap;html=1;arcSize=50;" vertex="1" parent="1">
          <mxGeometry x="1600" y="569.75" width="200" height="30" as="geometry" />
        </mxCell>
        <mxCell id="XetIG6lo_GdONwsDEzCl-127" style="edgeStyle=orthogonalEdgeStyle;rounded=0;orthogonalLoop=1;jettySize=auto;html=1;" edge="1" parent="1" source="XetIG6lo_GdONwsDEzCl-128" target="XetIG6lo_GdONwsDEzCl-130">
          <mxGeometry relative="1" as="geometry" />
        </mxCell>
        <mxCell id="XetIG6lo_GdONwsDEzCl-128" value="Начало" style="rounded=1;whiteSpace=wrap;html=1;arcSize=50;" vertex="1" parent="1">
          <mxGeometry x="20" y="1190" width="200" height="30" as="geometry" />
        </mxCell>
        <mxCell id="XetIG6lo_GdONwsDEzCl-129" style="edgeStyle=orthogonalEdgeStyle;rounded=0;orthogonalLoop=1;jettySize=auto;html=1;" edge="1" parent="1" source="XetIG6lo_GdONwsDEzCl-130" target="XetIG6lo_GdONwsDEzCl-134">
          <mxGeometry relative="1" as="geometry" />
        </mxCell>
        <mxCell id="XetIG6lo_GdONwsDEzCl-130" value="Ввод n" style="shape=parallelogram;perimeter=parallelogramPerimeter;whiteSpace=wrap;html=1;fixedSize=1;" vertex="1" parent="1">
          <mxGeometry x="20" y="1240" width="200" height="30" as="geometry" />
        </mxCell>
        <mxCell id="XetIG6lo_GdONwsDEzCl-131" value="n - количество элементов" style="strokeWidth=1;html=1;shape=mxgraph.flowchart.annotation_1;align=left;pointerEvents=1;" vertex="1" parent="1">
          <mxGeometry x="250" y="1240" width="5" height="30" as="geometry" />
        </mxCell>
        <mxCell id="XetIG6lo_GdONwsDEzCl-132" value="" style="endArrow=none;html=1;rounded=0;entryX=0;entryY=0.5;entryDx=0;entryDy=0;entryPerimeter=0;dashed=1;" edge="1" parent="1" source="XetIG6lo_GdONwsDEzCl-130" target="XetIG6lo_GdONwsDEzCl-131">
          <mxGeometry width="50" height="50" relative="1" as="geometry">
            <mxPoint x="220" y="1255" as="sourcePoint" />
            <mxPoint x="300" y="1245" as="targetPoint" />
          </mxGeometry>
        </mxCell>
        <mxCell id="XetIG6lo_GdONwsDEzCl-133" style="edgeStyle=orthogonalEdgeStyle;rounded=0;orthogonalLoop=1;jettySize=auto;html=1;" edge="1" parent="1" source="XetIG6lo_GdONwsDEzCl-134" target="XetIG6lo_GdONwsDEzCl-136">
          <mxGeometry relative="1" as="geometry" />
        </mxCell>
        <mxCell id="XetIG6lo_GdONwsDEzCl-134" value="i = 1" style="rounded=0;whiteSpace=wrap;html=1;" vertex="1" parent="1">
          <mxGeometry x="20" y="1290" width="200" height="30" as="geometry" />
        </mxCell>
        <mxCell id="XetIG6lo_GdONwsDEzCl-135" style="edgeStyle=orthogonalEdgeStyle;rounded=0;orthogonalLoop=1;jettySize=auto;html=1;" edge="1" parent="1" source="XetIG6lo_GdONwsDEzCl-136" target="XetIG6lo_GdONwsDEzCl-138">
          <mxGeometry relative="1" as="geometry" />
        </mxCell>
        <mxCell id="XetIG6lo_GdONwsDEzCl-136" value="Ввод массива&lt;div&gt;i &amp;gt; n&lt;/div&gt;" style="shape=loopLimit;whiteSpace=wrap;html=1;" vertex="1" parent="1">
          <mxGeometry x="20" y="1340" width="200" height="40" as="geometry" />
        </mxCell>
        <mxCell id="XetIG6lo_GdONwsDEzCl-137" style="edgeStyle=orthogonalEdgeStyle;rounded=0;orthogonalLoop=1;jettySize=auto;html=1;" edge="1" parent="1" source="XetIG6lo_GdONwsDEzCl-138" target="XetIG6lo_GdONwsDEzCl-142">
          <mxGeometry relative="1" as="geometry" />
        </mxCell>
        <mxCell id="XetIG6lo_GdONwsDEzCl-138" value="Ввод array[i]" style="shape=parallelogram;perimeter=parallelogramPerimeter;whiteSpace=wrap;html=1;fixedSize=1;" vertex="1" parent="1">
          <mxGeometry x="20" y="1400" width="200" height="30" as="geometry" />
        </mxCell>
        <mxCell id="XetIG6lo_GdONwsDEzCl-139" value="array - массив чисел" style="strokeWidth=1;html=1;shape=mxgraph.flowchart.annotation_1;align=left;pointerEvents=1;" vertex="1" parent="1">
          <mxGeometry x="245" y="1400" width="5" height="30" as="geometry" />
        </mxCell>
        <mxCell id="XetIG6lo_GdONwsDEzCl-140" value="" style="endArrow=none;html=1;rounded=0;entryX=0;entryY=0.5;entryDx=0;entryDy=0;entryPerimeter=0;dashed=1;" edge="1" parent="1" source="XetIG6lo_GdONwsDEzCl-138" target="XetIG6lo_GdONwsDEzCl-139">
          <mxGeometry width="50" height="50" relative="1" as="geometry">
            <mxPoint x="215" y="1415" as="sourcePoint" />
            <mxPoint x="295" y="1405" as="targetPoint" />
          </mxGeometry>
        </mxCell>
        <mxCell id="XetIG6lo_GdONwsDEzCl-141" style="edgeStyle=orthogonalEdgeStyle;rounded=0;orthogonalLoop=1;jettySize=auto;html=1;" edge="1" parent="1" source="XetIG6lo_GdONwsDEzCl-142" target="XetIG6lo_GdONwsDEzCl-144">
          <mxGeometry relative="1" as="geometry" />
        </mxCell>
        <mxCell id="XetIG6lo_GdONwsDEzCl-142" value="i = i + 1" style="rounded=0;whiteSpace=wrap;html=1;" vertex="1" parent="1">
          <mxGeometry x="20" y="1450" width="200" height="30" as="geometry" />
        </mxCell>
        <mxCell id="XetIG6lo_GdONwsDEzCl-143" style="edgeStyle=orthogonalEdgeStyle;rounded=0;orthogonalLoop=1;jettySize=auto;html=1;" edge="1" parent="1" source="XetIG6lo_GdONwsDEzCl-144">
          <mxGeometry relative="1" as="geometry">
            <mxPoint x="120" y="1560" as="targetPoint" />
          </mxGeometry>
        </mxCell>
        <mxCell id="XetIG6lo_GdONwsDEzCl-144" value="Ввод массива" style="shape=loopLimit;whiteSpace=wrap;html=1;direction=west;" vertex="1" parent="1">
          <mxGeometry x="20" y="1500" width="200" height="40" as="geometry" />
        </mxCell>
        <mxCell id="XetIG6lo_GdONwsDEzCl-145" style="edgeStyle=orthogonalEdgeStyle;rounded=0;orthogonalLoop=1;jettySize=auto;html=1;" edge="1" parent="1" source="XetIG6lo_GdONwsDEzCl-146" target="XetIG6lo_GdONwsDEzCl-151">
          <mxGeometry relative="1" as="geometry" />
        </mxCell>
        <mxCell id="XetIG6lo_GdONwsDEzCl-146" value="sort = 1" style="rounded=0;whiteSpace=wrap;html=1;" vertex="1" parent="1">
          <mxGeometry x="20" y="1560" width="200" height="30" as="geometry" />
        </mxCell>
        <mxCell id="XetIG6lo_GdONwsDEzCl-147" value="i - счетчик цикла" style="strokeWidth=1;html=1;shape=mxgraph.flowchart.annotation_1;align=left;pointerEvents=1;" vertex="1" parent="1">
          <mxGeometry x="250" y="1290" width="5" height="30" as="geometry" />
        </mxCell>
        <mxCell id="XetIG6lo_GdONwsDEzCl-148" value="" style="endArrow=none;html=1;rounded=0;entryX=0;entryY=0.5;entryDx=0;entryDy=0;entryPerimeter=0;exitX=1;exitY=0.5;exitDx=0;exitDy=0;dashed=1;" edge="1" parent="1" target="XetIG6lo_GdONwsDEzCl-147">
          <mxGeometry width="50" height="50" relative="1" as="geometry">
            <mxPoint x="220" y="1305" as="sourcePoint" />
            <mxPoint x="300" y="1295" as="targetPoint" />
          </mxGeometry>
        </mxCell>
        <mxCell id="XetIG6lo_GdONwsDEzCl-149" style="edgeStyle=orthogonalEdgeStyle;rounded=0;orthogonalLoop=1;jettySize=auto;html=1;" edge="1" parent="1" source="XetIG6lo_GdONwsDEzCl-151" target="XetIG6lo_GdONwsDEzCl-153">
          <mxGeometry relative="1" as="geometry" />
        </mxCell>
        <mxCell id="XetIG6lo_GdONwsDEzCl-150" style="edgeStyle=orthogonalEdgeStyle;rounded=0;orthogonalLoop=1;jettySize=auto;html=1;" edge="1" parent="1" source="XetIG6lo_GdONwsDEzCl-151" target="XetIG6lo_GdONwsDEzCl-154">
          <mxGeometry relative="1" as="geometry" />
        </mxCell>
        <mxCell id="XetIG6lo_GdONwsDEzCl-151" value="sort = 1" style="rhombus;whiteSpace=wrap;html=1;" vertex="1" parent="1">
          <mxGeometry x="20" y="1610" width="200" height="40" as="geometry" />
        </mxCell>
        <mxCell id="XetIG6lo_GdONwsDEzCl-152" style="edgeStyle=orthogonalEdgeStyle;rounded=0;orthogonalLoop=1;jettySize=auto;html=1;" edge="1" parent="1" source="XetIG6lo_GdONwsDEzCl-153" target="XetIG6lo_GdONwsDEzCl-160">
          <mxGeometry relative="1" as="geometry" />
        </mxCell>
        <mxCell id="XetIG6lo_GdONwsDEzCl-153" value="comp = вверх" style="rounded=0;whiteSpace=wrap;html=1;" vertex="1" parent="1">
          <mxGeometry x="20" y="1670" width="200" height="30" as="geometry" />
        </mxCell>
        <mxCell id="XetIG6lo_GdONwsDEzCl-154" value="comp = вниз" style="rounded=0;whiteSpace=wrap;html=1;" vertex="1" parent="1">
          <mxGeometry x="240" y="1670" width="200" height="30" as="geometry" />
        </mxCell>
        <mxCell id="XetIG6lo_GdONwsDEzCl-155" value="Да" style="text;html=1;align=center;verticalAlign=middle;resizable=0;points=[];autosize=1;strokeColor=none;fillColor=none;" vertex="1" parent="1">
          <mxGeometry x="80" y="1640" width="40" height="30" as="geometry" />
        </mxCell>
        <mxCell id="XetIG6lo_GdONwsDEzCl-156" value="Нет" style="text;html=1;align=center;verticalAlign=middle;resizable=0;points=[];autosize=1;strokeColor=none;fillColor=none;" vertex="1" parent="1">
          <mxGeometry x="210" y="1600" width="40" height="30" as="geometry" />
        </mxCell>
        <mxCell id="XetIG6lo_GdONwsDEzCl-157" value="comp - компаратор" style="strokeWidth=1;html=1;shape=mxgraph.flowchart.annotation_1;align=left;pointerEvents=1;" vertex="1" parent="1">
          <mxGeometry x="470" y="1670" width="5" height="30" as="geometry" />
        </mxCell>
        <mxCell id="XetIG6lo_GdONwsDEzCl-158" value="" style="endArrow=none;html=1;rounded=0;entryX=0;entryY=0.5;entryDx=0;entryDy=0;entryPerimeter=0;exitX=1;exitY=0.5;exitDx=0;exitDy=0;dashed=1;" edge="1" parent="1" target="XetIG6lo_GdONwsDEzCl-157">
          <mxGeometry width="50" height="50" relative="1" as="geometry">
            <mxPoint x="440" y="1685" as="sourcePoint" />
            <mxPoint x="520" y="1675" as="targetPoint" />
          </mxGeometry>
        </mxCell>
        <mxCell id="XetIG6lo_GdONwsDEzCl-159" value="" style="group" vertex="1" connectable="0" parent="1">
          <mxGeometry x="20" y="1739" width="200" height="30" as="geometry" />
        </mxCell>
        <mxCell id="XetIG6lo_GdONwsDEzCl-160" value="сортировка(n, array, comp)" style="rounded=0;whiteSpace=wrap;html=1;" vertex="1" parent="XetIG6lo_GdONwsDEzCl-159">
          <mxGeometry width="200" height="30" as="geometry" />
        </mxCell>
        <mxCell id="XetIG6lo_GdONwsDEzCl-161" value="" style="endArrow=none;html=1;rounded=0;" edge="1" parent="XetIG6lo_GdONwsDEzCl-159">
          <mxGeometry width="50" height="50" relative="1" as="geometry">
            <mxPoint x="10" as="sourcePoint" />
            <mxPoint x="10" y="30" as="targetPoint" />
          </mxGeometry>
        </mxCell>
        <mxCell id="XetIG6lo_GdONwsDEzCl-162" value="" style="endArrow=none;html=1;rounded=0;" edge="1" parent="XetIG6lo_GdONwsDEzCl-159">
          <mxGeometry width="50" height="50" relative="1" as="geometry">
            <mxPoint x="190" as="sourcePoint" />
            <mxPoint x="190" y="30" as="targetPoint" />
          </mxGeometry>
        </mxCell>
        <mxCell id="XetIG6lo_GdONwsDEzCl-163" value="" style="endArrow=none;html=1;rounded=0;" edge="1" parent="1">
          <mxGeometry width="50" height="50" relative="1" as="geometry">
            <mxPoint x="120" y="1720" as="sourcePoint" />
            <mxPoint x="340" y="1720" as="targetPoint" />
          </mxGeometry>
        </mxCell>
        <mxCell id="XetIG6lo_GdONwsDEzCl-164" value="" style="endArrow=none;html=1;rounded=0;entryX=0.5;entryY=1;entryDx=0;entryDy=0;" edge="1" parent="1" target="XetIG6lo_GdONwsDEzCl-154">
          <mxGeometry width="50" height="50" relative="1" as="geometry">
            <mxPoint x="340" y="1720" as="sourcePoint" />
            <mxPoint x="290" y="1700" as="targetPoint" />
          </mxGeometry>
        </mxCell>
        <mxCell id="XetIG6lo_GdONwsDEzCl-165" style="edgeStyle=orthogonalEdgeStyle;rounded=0;orthogonalLoop=1;jettySize=auto;html=1;" edge="1" parent="1" source="XetIG6lo_GdONwsDEzCl-166" target="XetIG6lo_GdONwsDEzCl-169">
          <mxGeometry relative="1" as="geometry" />
        </mxCell>
        <mxCell id="XetIG6lo_GdONwsDEzCl-166" value="i = 1" style="rounded=0;whiteSpace=wrap;html=1;" vertex="1" parent="1">
          <mxGeometry x="20" y="1790" width="200" height="30" as="geometry" />
        </mxCell>
        <mxCell id="XetIG6lo_GdONwsDEzCl-167" style="edgeStyle=orthogonalEdgeStyle;rounded=0;orthogonalLoop=1;jettySize=auto;html=1;" edge="1" parent="1" source="XetIG6lo_GdONwsDEzCl-160" target="XetIG6lo_GdONwsDEzCl-166">
          <mxGeometry relative="1" as="geometry" />
        </mxCell>
        <mxCell id="XetIG6lo_GdONwsDEzCl-168" style="edgeStyle=orthogonalEdgeStyle;rounded=0;orthogonalLoop=1;jettySize=auto;html=1;" edge="1" parent="1" source="XetIG6lo_GdONwsDEzCl-169" target="XetIG6lo_GdONwsDEzCl-171">
          <mxGeometry relative="1" as="geometry" />
        </mxCell>
        <mxCell id="XetIG6lo_GdONwsDEzCl-169" value="Ввод массива&lt;div&gt;i &amp;gt; n&lt;/div&gt;" style="shape=loopLimit;whiteSpace=wrap;html=1;" vertex="1" parent="1">
          <mxGeometry x="20" y="1840" width="200" height="40" as="geometry" />
        </mxCell>
        <mxCell id="XetIG6lo_GdONwsDEzCl-170" style="edgeStyle=orthogonalEdgeStyle;rounded=0;orthogonalLoop=1;jettySize=auto;html=1;" edge="1" parent="1" source="XetIG6lo_GdONwsDEzCl-171" target="XetIG6lo_GdONwsDEzCl-173">
          <mxGeometry relative="1" as="geometry" />
        </mxCell>
        <mxCell id="XetIG6lo_GdONwsDEzCl-171" value="Вывод array[i]" style="shape=parallelogram;perimeter=parallelogramPerimeter;whiteSpace=wrap;html=1;fixedSize=1;" vertex="1" parent="1">
          <mxGeometry x="20" y="1900" width="200" height="30" as="geometry" />
        </mxCell>
        <mxCell id="XetIG6lo_GdONwsDEzCl-172" style="edgeStyle=orthogonalEdgeStyle;rounded=0;orthogonalLoop=1;jettySize=auto;html=1;" edge="1" parent="1" source="XetIG6lo_GdONwsDEzCl-173" target="XetIG6lo_GdONwsDEzCl-175">
          <mxGeometry relative="1" as="geometry" />
        </mxCell>
        <mxCell id="XetIG6lo_GdONwsDEzCl-173" value="i = i + 1" style="rounded=0;whiteSpace=wrap;html=1;" vertex="1" parent="1">
          <mxGeometry x="20" y="1950" width="200" height="30" as="geometry" />
        </mxCell>
        <mxCell id="XetIG6lo_GdONwsDEzCl-174" style="edgeStyle=orthogonalEdgeStyle;rounded=0;orthogonalLoop=1;jettySize=auto;html=1;" edge="1" parent="1" source="XetIG6lo_GdONwsDEzCl-175" target="XetIG6lo_GdONwsDEzCl-176">
          <mxGeometry relative="1" as="geometry" />
        </mxCell>
        <mxCell id="XetIG6lo_GdONwsDEzCl-175" value="Ввод массива" style="shape=loopLimit;whiteSpace=wrap;html=1;direction=west;" vertex="1" parent="1">
          <mxGeometry x="20" y="2000" width="200" height="40" as="geometry" />
        </mxCell>
        <mxCell id="XetIG6lo_GdONwsDEzCl-176" value="Конец" style="rounded=1;whiteSpace=wrap;html=1;arcSize=50;" vertex="1" parent="1">
          <mxGeometry x="20" y="2060" width="200" height="30" as="geometry" />
        </mxCell>
      </root>
    </mxGraphModel>
  </diagram>
</mxfile>
